<svg xmlns="http://www.w3.org/2000/svg" width="290" height="290" viewBox="0 0 290 290"><rect width="100%" height="100%" fill="#DDDDDD"/><path fill="#999999" d="M68 154.61h7.23q.78 0 1.24.44.46.44.46 1.16v2.89H57.58v-1.6q0-.49.21-1.02.2-.54.65-.97l8.56-8.58q1.08-1.09 1.92-2.08.85-1 1.42-1.97.56-.98.87-1.98.3-1.01.3-2.12 0-1.01-.29-1.78-.3-.77-.83-1.3-.54-.53-1.29-.79t-1.69-.26q-.86 0-1.59.24-.73.24-1.29.68-.57.44-.96 1.03-.39.58-.58 1.28-.33.9-.86 1.19-.53.3-1.52.14l-2.54-.45q.29-2.03 1.13-3.56.84-1.53 2.1-2.55 1.26-1.03 2.89-1.54 1.62-.52 3.5-.52 1.95 0 3.56.58 1.62.57 2.77 1.62 1.15 1.06 1.8 2.54.64 1.48.64 3.29 0 1.57-.46 2.89-.46 1.33-1.23 2.54-.77 1.2-1.8 2.34-1.03 1.13-2.16 2.3l-6.36 6.49q.92-.27 1.82-.42.91-.15 1.73-.15Zm17.16-15.24q0 2.36 1.22 3.59 1.22 1.24 3.46 1.24 1.17 0 2.08-.37.92-.37 1.54-1.01.63-.65.95-1.52.32-.88.32-1.9 0-1.15-.35-2.05-.35-.91-.99-1.53-.65-.63-1.53-.96-.89-.33-1.94-.33-1.1 0-1.97.36-.88.36-1.5 1.01-.63.64-.96 1.53-.33.88-.33 1.94ZM82.8 159.1l8.75-10.94q.34-.41.63-.8.29-.39.56-.78-.97.63-2.14.95-1.17.32-2.46.32-1.46 0-2.87-.51-1.4-.51-2.49-1.53-1.09-1.02-1.77-2.53-.67-1.52-.67-3.54 0-1.89.7-3.55.71-1.66 1.97-2.91 1.27-1.25 3.04-1.97 1.78-.72 3.92-.72 2.17 0 3.89.68 1.73.69 2.95 1.91 1.22 1.23 1.87 2.95.65 1.72.65 3.76 0 1.31-.22 2.48t-.63 2.25q-.41 1.08-1 2.12-.58 1.03-1.3 2.04l-6.46 9.21q-.33.47-.99.79-.67.32-1.5.32H82.8Zm40.19-14.1q0 3.69-.79 6.41t-2.19 4.49q-1.39 1.78-3.29 2.64-1.9.87-4.11.87-2.2 0-4.08-.87-1.88-.86-3.27-2.64-1.38-1.77-2.16-4.49-.78-2.72-.78-6.41 0-3.7.78-6.41t2.16-4.49q1.39-1.77 3.27-2.64 1.88-.87 4.08-.87 2.21 0 4.11.87 1.9.87 3.29 2.64 1.4 1.78 2.19 4.49t.79 6.41Zm-4.97 0q0-3.06-.45-5.07-.45-2.01-1.2-3.2-.75-1.19-1.73-1.66-.97-.48-2.03-.48-1.03 0-1.99.48-.97.47-1.71 1.66t-1.18 3.2q-.44 2.01-.44 5.07 0 3.06.44 5.07.44 2.01 1.18 3.2.74 1.19 1.71 1.67.96.47 1.99.47 1.06 0 2.03-.47.98-.48 1.73-1.67t1.2-3.2q.45-2.01.45-5.07Zm35.93 7.65-2.55 2.51-6.61-6.61-6.67 6.65-2.55-2.52 6.66-6.68-6.35-6.36 2.53-2.54 6.36 6.36 6.32-6.32 2.57 2.54-6.34 6.34 6.63 6.63Zm23.48 1.96h7.24q.78 0 1.23.44.46.44.46 1.16v2.89h-19.34v-1.6q0-.49.2-1.02.21-.54.66-.97l8.56-8.58q1.07-1.09 1.92-2.08.85-1 1.41-1.97.57-.98.87-1.98.3-1.01.3-2.12 0-1.01-.29-1.78t-.83-1.3q-.54-.53-1.29-.79t-1.68-.26q-.86 0-1.59.24-.73.24-1.3.68-.56.44-.95 1.03-.39.58-.59 1.28-.33.9-.86 1.19-.52.3-1.52.14l-2.53-.45q.29-2.03 1.13-3.56.84-1.53 2.09-2.55 1.26-1.03 2.89-1.54 1.63-.52 3.5-.52 1.95 0 3.57.58 1.62.57 2.77 1.62 1.15 1.06 1.79 2.54.65 1.48.65 3.29 0 1.57-.46 2.89-.46 1.33-1.23 2.54-.77 1.2-1.81 2.34-1.03 1.13-2.16 2.3l-6.36 6.49q.92-.27 1.83-.42.9-.15 1.72-.15Zm17.16-15.24q0 2.36 1.22 3.59 1.22 1.24 3.46 1.24 1.17 0 2.09-.37.92-.37 1.54-1.01.62-.65.94-1.52.33-.88.33-1.9 0-1.15-.35-2.05-.36-.91-1-1.53-.64-.63-1.53-.96-.89-.33-1.94-.33-1.09 0-1.97.36-.88.36-1.5 1.01-.62.64-.96 1.53-.33.88-.33 1.94Zm-2.36 19.73 8.76-10.94q.33-.41.62-.8.29-.39.57-.78-.98.63-2.15.95-1.17.32-2.45.32-1.47 0-2.87-.51-1.4-.51-2.5-1.53-1.09-1.02-1.76-2.53-.67-1.52-.67-3.54 0-1.89.7-3.55t1.97-2.91q1.26-1.25 3.04-1.97 1.77-.72 3.92-.72 2.16 0 3.89.68 1.72.69 2.94 1.91 1.22 1.23 1.88 2.95.65 1.72.65 3.76 0 1.31-.23 2.48-.22 1.17-.63 2.25-.41 1.08-.99 2.12-.59 1.03-1.31 2.04l-6.45 9.21q-.34.47-1 .79-.66.32-1.5.32h-4.43Zm40.19-14.1q0 3.69-.79 6.41t-2.18 4.49q-1.4 1.78-3.3 2.64-1.9.87-4.1.87-2.21 0-4.09-.87-1.88-.86-3.26-2.64-1.39-1.77-2.17-4.49t-.78-6.41q0-3.7.78-6.41t2.17-4.49q1.38-1.77 3.26-2.64 1.88-.87 4.09-.87 2.2 0 4.1.87 1.9.87 3.3 2.64 1.39 1.78 2.18 4.49.79 2.71.79 6.41Zm-4.97 0q0-3.06-.45-5.07-.45-2.01-1.2-3.2-.75-1.19-1.72-1.66-.98-.48-2.03-.48-1.04 0-2 .48-.97.47-1.71 1.66t-1.18 3.2q-.44 2.01-.44 5.07 0 3.06.44 5.07.44 2.01 1.18 3.2.74 1.19 1.71 1.67.96.47 2 .47 1.05 0 2.03-.47.97-.48 1.72-1.67t1.2-3.2q.45-2.01.45-5.07Z"/></svg>