<svg width="25" height="25" viewBox="0 0 25 25" fill="none" xmlns="http://www.w3.org/2000/svg">
<g id="Group">
<path id="Vector" d="M12.5 25C19.4036 25 25 19.4036 25 12.5C25 5.59644 19.4036 0 12.5 0C5.59644 0 0 5.59644 0 12.5C0 19.4036 5.59644 25 12.5 25Z" fill="#26A17B"/>
<path id="Vector_2" fill-rule="evenodd" clip-rule="evenodd" d="M14.0016 13.5803V13.5787C13.9156 13.585 13.4727 13.6115 12.4844 13.6115C11.6953 13.6115 11.1398 13.5881 10.9445 13.5787V13.5811C7.90703 13.4475 5.63984 12.9186 5.63984 12.2857C5.63984 11.6537 7.90703 11.1248 10.9445 10.9889V13.0545C11.143 13.0686 11.7117 13.1021 12.4977 13.1021C13.4406 13.1021 13.9133 13.0631 14.0016 13.0553V10.9904C17.0328 11.1256 19.2945 11.6545 19.2945 12.2857C19.2945 12.9186 17.0328 13.4459 14.0016 13.5803ZM14.0016 10.7756V8.92715H18.2312V6.1084H6.71484V8.92715H10.9445V10.7748C7.50703 10.9326 4.92188 11.6139 4.92188 12.4295C4.92188 13.2451 7.50703 13.9256 10.9445 14.0842V20.0076H14.0016V14.0826C17.4336 13.9248 20.0125 13.2443 20.0125 12.4295C20.0125 11.6146 17.4336 10.9342 14.0016 10.7756Z" fill="white"/>
</g>
</svg>
