<svg width="27" height="27" viewBox="0 0 27 27" fill="none" xmlns="http://www.w3.org/2000/svg">
<g id="&#240;&#159;&#166;&#134; icon &#34;Binance Coin Cryptocurrency&#34;">
<g id="Group">
<path id="Vector" d="M13.5 27C20.9558 27 27 20.9558 27 13.5C27 6.04416 20.9558 0 13.5 0C6.04416 0 0 6.04416 0 13.5C0 20.9558 6.04416 27 13.5 27Z" fill="#F3BA2F"/>
<path id="Vector_2" d="M10.2229 12.1534L13.5 8.87625L16.7788 12.1551L18.6857 10.2482L13.5 5.0625L8.316 10.2465L10.2229 12.1534ZM5.0625 13.5L6.96938 11.5931L8.87625 13.5L6.96938 15.4069L5.0625 13.5ZM10.2229 14.8466L13.5 18.1237L16.7788 14.8449L18.6857 16.751L13.5 21.9375L8.316 16.7535L8.31347 16.751L10.2229 14.8466ZM18.1237 13.5L20.0306 11.5931L21.9375 13.5L20.0306 15.4069L18.1237 13.5ZM15.4339 13.4983H15.4356V13.5L13.5 15.4356L11.567 13.5034L11.5636 13.5L11.567 13.4975L11.9053 13.1583L12.0698 12.9937L13.5 11.5644L15.4347 13.4992L15.4339 13.4983Z" fill="white"/>
</g>
</g>
</svg>
